# xmcd CD database file
#
# Track frame offsets:
#	150
#	14617
#	25820
#	42366
#	55975
#	70997
#	88908
#	100673
#	114780
#	133926
#	146603
#	160688
#	179759
#	192275
#	221311
#	238932
#	251260
#	278158
#	305564
#	323487
#	344369
#
# Disc length: 4789 seconds
#
# Revision: 0
# Processed by: cddbd v1.5.1PL2 Copyright (c) Steve Scherf et al.
# Submitted via: CDex 1.51
#
DISCID=3112b315
DTITLE=Norah Jones - Come Away With Me
DYEAR=1900
DGENRE=Blues
TTITLE0=Don't Know Why
TTITLE1=Seven Years
TTITLE2=Cold Cold Heart
TTITLE3=Feelin' The Same Way
TTITLE4=Come Away With Me
TTITLE5=Shoot The Moon
TTITLE6=Turn Me On
TTITLE7=Lonestar
TTITLE8=I've Got To See You Again
TTITLE9=Painter Song
TTITLE10=One Flight Down
TTITLE11=Nightingale
TTITLE12=The Long Day Is Over
TTITLE13=The Nearness Of You
TTITLE14=Peace
TTITLE15=What Am I To You
TTITLE16=Butterflies
TTITLE17=No Easy Way
TTITLE18=What Would I Do
TTITLE19=Day Is Done
TTITLE20=Come Away With Me (Radio Edit)
EXTD=
EXTT0=
EXTT1=
EXTT2=
EXTT3=
EXTT4=
EXTT5=
EXTT6=
EXTT7=
EXTT8=
EXTT9=
EXTT10=
EXTT11=
EXTT12=
EXTT13=
EXTT14=
EXTT15=
EXTT16=
EXTT17=
EXTT18=
EXTT19=
EXTT20=
PLAYORDER=
